# xmcd
#
# Track frame offsets: 
#        150
#        12029
#        27842
#        38724
#        49337
#        58410
#        75709
#        87720
#        102029
#        115045
#        126512
#        136407
#        149029
#        163822
#
# Disc length: 2362 seconds
#
# Revision: 0
# Processed by: cddbd v1.5.1PL0 Copyright (c) Steve Scherf et al.
# Submitted via: ExactAudioCopy v0.95a5
#
DISCID=c809380e
DTITLE=Various Artist - Bluegrass - Volume 4
DYEAR=2004
DGENRE=Bluegrass
TTITLE0=Ralph Stanley, Ricky Skaggs, and Keith Whitley/We'll Be Sweethea
TTITLE0=rts in Heaven
TTITLE1=Roy McGinnis and The Sunnysiders/Dueling Banjos
TTITLE2=Ralph Stanley and The Clinch Mountain Boys/In Heaven We'll Never
TTITLE2=Grow Old
TTITLE3=Jim Eanes/Greasy Creek
TTITLE4=The Fields Brothers/Thunder Road
TTITLE5=Hylo Brown/Dark as a Dungeon
TTITLE6=Lowell Varney/Earl's Breakdown
TTITLE7=The Goins Brothers/Bluegrass Blues
TTITLE8=Ralph "Joe" Meadows/Cacklin' Hen
TTITLE9=Ralph Stanley and The Clinch Mountain Boys/Keep My Love With You
TTITLE10=Leon Morris/Sing Me Back Home
TTITLE11=Carl Story/I Am a Pilgrim
TTITLE12=The RFD Boys/Rocky Top
TTITLE13=Bluegrass Alliance/The Night They Drove Old Dixie Down
EXTD=
EXTT0=
EXTT1=
EXTT2=
EXTT3=
EXTT4=
EXTT5=
EXTT6=
EXTT7=
EXTT8=
EXTT9=
EXTT10=
EXTT11=
EXTT12=
EXTT13=
PLAYORDER=
